<svg width="500" height="500" xmlns="http://www.w3.org/2000/svg">
  <path d="M320.4936686461999,0.0 L292.4378414588533,6.858311942675925 L275.9386653009422,27.419563539146452 L171.98166368752803,69.24890222534219 L84.50658683553783,96.6145496480973 L58.07910700417653,114.8559994051289 L18.515345923395138,170.3947096283104 L1.9753314873046142,174.94884037853222 L13.54508051708436,194.7277987225741 L11.890277201758845,208.41742984400275 L0.0,224.56409654456547 L6.229427123850433,238.75960902889318 L16.957884959292475,251.67910922590613 L37.03048350688584,254.39060792295527 L46.63646333844691,266.87058650938195 L42.240272273814014,287.9420206883765 L24.655508018385433,304.9612353170019 L38.93756951485291,334.05890900598524 L30.206009220221773,354.70454983905074 L56.02105698327055,379.8991932607033 L100.81775741401593,418.39093116753 L118.2808779443208,424.6895701601583 L140.29250871575516,444.7255483618457 L224.1179925996917,480.9808559749209 L283.44064273124434,500.0 L298.9161167078823,497.0282602833913 L363.3972581334335,444.13119835172773 L380.16235491766804,435.81029587742756 L387.90009188116284,420.95153041063566 L402.08594299590123,412.63061557822033 L394.34820603240644,401.93228999107737 L405.95481152884844,390.6396050190217 L433.0368908979772,384.69608334437874 L417.5614169725391,350.81796662421436 L418.8510397832388,336.5534744694895 L449.8019876853147,338.93089073148633 L465.2774616604011,320.505905258438 L466.56708447110077,296.13734277982644 L455.10397740246873,290.567031440847 L458.3434297260209,285.64018042246187 L456.07581311458404,283.55000072737806 L450.0828263452585,283.0274557600769 L447.49126449696706,285.71482968284863 L445.5475931192818,285.41623260640574 L445.22364793207555,281.833067206098 L453.64622385756843,275.9357723540875 L459.15329279566043,264.2904747442907 L455.78858278614456,260.91408735823575 L450.4476062204494,261.18759080818927 L453.41481540620197,255.3072655102753 L450.4476062204494,250.79445622073428 L451.9312108125499,248.3329233395714 L469.43774515138426,237.2560205757219 L470.9213497450363,232.60645412811084 L471.51479160204616,225.22184575979594 L474.7787217170794,220.57227574923672 L493.76886065111734,214.28167882911873 L500.0,206.21330083095552 L489.07520863179036,191.1954875206617 L491.7456968929168,187.77667877143506 L485.2178366581957,184.6313740614532 L479.28341823704227,168.76808856469984 L465.9309767979802,159.3321611548538 L461.1834420877434,151.1270022737882 L457.6227909984356,140.050031016153 L452.57853535891815,138.81925595237811 L447.2375587947745,137.99873918956865 L446.34739600848394,136.4944583392549 L451.9850935050113,130.34058065659417 L451.11129158864213,122.45448599835606 L441.6162221216232,111.65100061358294 L429.1539434657486,102.21503897563406 L426.48345515962836,97.97569205369768 L431.230989914859,92.64231849441762 L428.26378068411265,89.7705012206286 L431.5277108441397,81.56530611792715 L427.6703388720966,78.1464735551076 L417.87854848045146,73.9071201631366 L409.57036267780387,70.76179271130951 L398.2949676909552,73.49686009698172 L391.1736656023274,73.36010673628789 L390.8769446745982,70.21477918621576 L399.7785722830558,70.76179271130951 L411.94413005774646,65.56516337969367 L413.1310137221178,63.65061530565413 L408.0867580841518,58.45398363190543 L407.921672700889,49.73977239774075 L403.1741379906522,43.996121699860964 L407.62495177315986,41.808063742160584 L403.1741379906522,40.44052737362381 L395.75611497429514,42.35507826276819 L386.8544873192923,44.67988975564134 L387.7446501024798,40.71403465477562 L389.22825469613184,37.15843957836876 L386.5577664365569,35.10713436683869 L377.95285970773165,34.286612207531846 L375.8758132601728,32.098552904644066 L388.3380919579381,30.457508230630253 L389.82169655314163,27.31217212232451 L386.2610455088277,25.53437317621075 L383.29383627497833,17.46589851907629 L369.64467395318087,15.961606184831282 L361.03976722590716,15.961606184831282 L358.3692789663322,14.320559835283404 L361.9299300090947,12.40600553852181 L373.502045925224,12.5427594273051 L388.04137103020895,15.414590750491186 L393.6790685251848,14.183805961711073 L393.08562666817494,10.901712711977893 L390.11841748087085,8.576896258536124 L379.13974342019986,6.525587325505853 L320.4936686461999,0.0 Z" fill="none" stroke="black"/>
</svg>